<?xml version="1.0" standalone="no"?>
<!DOCTYPE svg PUBLIC "-//W3C//DTD SVG 20010904//EN"
 "http://www.w3.org/TR/2001/REC-SVG-20010904/DTD/svg10.dtd">
<svg version="1.0" xmlns="http://www.w3.org/2000/svg"
 width="453.000000pt" height="453.000000pt" viewBox="0 0 453.000000 453.000000"
 preserveAspectRatio="xMidYMid meet">
<metadata>
Created by potrace 1.11, written by Peter Selinger 2001-2013
</metadata>
<g transform="translate(0.000000,453.000000) scale(0.100000,-0.100000)"
fill="#000000" stroke="none">
<path d="M1200 4516 c0 -10 9 -16 21 -16 24 0 21 23 -4 28 -10 2 -17 -3 -17
-12z"/>
<path d="M1330 4505 c0 -14 -4 -25 -10 -25 -5 0 -10 -7 -10 -16 0 -13 7 -15
33 -10 17 4 40 8 50 9 9 1 17 8 17 17 0 19 -20 51 -20 33 0 -7 -7 -13 -15 -13
-8 0 -15 7 -15 15 0 8 -7 15 -15 15 -9 0 -15 -9 -15 -25z"/>
<path d="M1460 4490 c0 -36 2 -40 26 -40 40 0 23 -25 -19 -28 -28 -2 -37 1
-37 12 0 10 -9 16 -25 16 -14 0 -25 -4 -25 -10 0 -5 -11 -12 -25 -16 -14 -3
-25 -10 -25 -15 0 -14 -40 -10 -56 5 -8 8 -14 24 -14 35 0 12 -6 21 -15 21 -8
0 -15 -4 -15 -10 0 -5 -16 -10 -35 -10 -29 0 -37 -5 -45 -25 -9 -22 -20 -30
-42 -26 -5 0 -8 -3 -8 -9 0 -5 -4 -10 -10 -10 -17 0 -11 30 8 37 23 9 31 22
25 43 -3 12 -11 16 -24 13 -13 -4 -21 2 -27 17 -8 20 -9 21 -15 6 -4 -10 -5
-22 -1 -27 3 -5 -2 -9 -11 -9 -9 0 -24 -13 -33 -30 -21 -36 -30 -38 -38 -5 -5
22 -11 25 -54 25 -26 0 -62 -8 -81 -17 -50 -25 -67 -26 -71 -2 -2 11 -7 21
-13 22 -17 3 -17 -42 -1 -59 9 -8 16 -22 16 -30 0 -13 5 -15 43 -18 6 -1 11 5
9 12 -1 6 7 12 19 12 11 0 18 4 14 9 -3 5 -1 12 5 16 6 4 10 -5 10 -20 0 -15
-4 -24 -10 -20 -5 3 -10 -2 -10 -13 0 -50 -88 -68 -91 -18 -1 16 -2 17 -6 4
-2 -10 -8 -18 -13 -18 -4 0 -6 -9 -3 -20 3 -11 0 -20 -6 -20 -6 0 -11 11 -11
24 0 32 -20 44 -27 17 -6 -24 -8 -25 -34 -11 -12 7 -19 21 -19 41 0 26 -2 28
-14 16 -15 -14 -11 -67 5 -67 5 0 9 -16 9 -35 0 -31 3 -35 25 -35 18 0 25 5
25 20 0 11 6 20 14 20 17 0 13 -63 -4 -68 -6 -2 -8 -8 -4 -13 11 -19 -57 -8
-77 12 l-20 20 -6 -20 c-3 -12 -12 -21 -19 -21 -8 0 -14 -6 -14 -13 0 -18 -34
-49 -43 -40 -4 3 -7 -1 -7 -10 0 -10 -4 -17 -9 -17 -14 0 -41 30 -41 45 0 21
-39 9 -66 -20 -34 -36 -76 -34 -91 5 -13 34 -25 37 -67 15 -15 -8 -35 -15 -42
-15 -21 0 -17 -18 6 -25 23 -7 24 -14 6 -38 -14 -18 -15 -18 -35 0 -12 9 -21
28 -21 40 0 13 -5 23 -11 23 -11 0 -10 -6 8 -62 4 -14 0 -18 -20 -18 -14 0
-27 -7 -31 -15 -3 -8 -12 -15 -20 -15 -9 0 -20 -9 -26 -21 -9 -15 -15 -18 -25
-9 -17 15 -21 6 -24 -62 -2 -56 -1 -58 23 -58 19 0 26 7 32 33 6 27 8 29 14
13 8 -24 1 -66 -11 -66 -5 0 -9 -7 -9 -15 0 -9 -9 -15 -25 -15 l-25 0 0 -1905
0 -1905 550 0 c422 0 555 3 571 13 17 9 23 9 26 0 6 -16 1723 -19 1723 -3 0 6
-7 10 -15 10 -8 0 -15 5 -15 11 0 6 -16 26 -37 45 -20 19 -34 37 -31 39 8 9
68 -29 68 -42 0 -7 10 -18 23 -24 12 -7 29 -20 38 -31 16 -17 52 -18 823 -18
l806 0 0 140 c0 77 -2 140 -5 140 -3 0 -10 -11 -15 -25 -14 -36 -30 -31 -30
10 0 19 -4 35 -10 35 -5 0 -10 11 -10 25 0 22 4 25 35 25 l35 0 0 130 c0 85
-4 130 -11 130 -5 0 -8 -4 -5 -8 2 -4 -4 -8 -14 -8 -10 0 -16 4 -14 8 3 4 -2
8 -10 8 -9 0 -16 -4 -16 -10 0 -5 -7 -10 -15 -10 -8 0 -15 5 -15 10 0 6 -36
10 -89 10 -59 0 -91 4 -93 12 -2 6 -30 13 -61 16 -31 2 -57 8 -57 13 0 5 -21
9 -47 9 -27 0 -57 7 -67 15 -11 8 -32 15 -48 15 -15 0 -28 5 -28 10 0 6 -11
10 -25 10 -16 0 -25 6 -25 15 0 9 -9 15 -25 15 -14 0 -25 4 -25 9 0 5 -11 12
-25 15 -14 4 -25 11 -25 16 0 6 -7 10 -15 10 -8 0 -15 4 -15 9 0 5 -9 12 -19
16 -10 3 -35 21 -56 40 -20 19 -39 35 -41 35 -8 0 -50 38 -72 65 -9 10 -31 15
-75 15 -61 0 -63 1 -75 32 -8 21 -9 34 -2 36 13 5 13 52 0 52 -6 0 -22 -11
-36 -25 -14 -14 -31 -25 -39 -25 -8 0 -15 -4 -15 -10 0 -5 -7 -10 -15 -10 -8
0 -15 9 -15 19 0 23 -22 40 -28 23 -8 -25 -22 -11 -22 22 0 28 4 35 23 38 14
2 23 11 25 26 2 12 2 22 0 22 -12 0 -76 -38 -72 -43 3 -2 -7 -7 -21 -11 -21
-5 -25 -12 -25 -46 0 -36 14 -62 22 -41 1 5 12 11 23 13 14 2 21 -3 23 -19 2
-13 -1 -23 -7 -23 -6 0 -11 -11 -11 -25 0 -13 -8 -28 -17 -33 -15 -9 -14 -12
10 -35 34 -31 35 -49 2 -41 -19 5 -25 2 -25 -10 0 -18 -16 -22 -22 -4 -2 6
-15 0 -31 -15 -14 -15 -30 -27 -34 -27 -13 0 -45 -63 -35 -69 5 -3 13 -20 16
-38 9 -42 73 -111 82 -89 9 23 23 20 21 -4 -1 -11 -5 -20 -9 -20 -4 0 -8 -7
-8 -15 0 -18 17 -20 23 -2 2 7 8 8 13 3 5 -5 4 -11 -3 -13 -19 -7 -16 -53 2
-53 14 0 19 12 16 33 0 4 4 7 9 7 6 0 10 -9 10 -20 0 -11 -4 -20 -10 -20 -5 0
-10 -7 -10 -15 0 -20 16 -19 24 2 6 15 9 15 16 3 6 -9 3 -18 -8 -27 -15 -13
-14 -13 5 -4 29 14 33 14 33 -4 0 -9 -6 -12 -15 -9 -11 5 -13 2 -9 -10 3 -9
13 -16 21 -16 7 0 24 -11 37 -25 13 -14 27 -25 31 -25 4 0 18 -11 31 -25 13
-14 31 -25 41 -25 28 0 45 -16 41 -36 -4 -19 -37 -22 -48 -4 -3 4 -15 10 -27
14 -13 4 -23 12 -23 17 0 5 -5 9 -11 9 -6 0 -17 6 -24 12 -30 27 -44 38 -50
38 -9 0 -115 112 -115 122 0 4 -7 8 -15 8 -8 0 -15 8 -15 19 0 10 -11 27 -25
37 -14 10 -25 24 -25 31 0 7 -4 13 -10 13 -5 0 -12 11 -16 25 -3 14 -10 25
-14 25 -4 0 -11 11 -14 25 -4 14 -11 25 -16 25 -6 0 -10 11 -10 25 0 14 -6 25
-12 25 -29 1 -42 19 -40 57 2 29 -2 41 -19 51 -13 9 -25 10 -31 4 -5 -5 -30
-7 -56 -4 -34 4 -53 12 -69 31 -25 28 -29 41 -13 41 6 0 10 6 10 14 0 8 10 16
23 18 14 2 23 11 25 26 2 12 8 22 13 22 6 0 8 4 4 9 -3 5 -1 12 5 16 22 14 8
26 -27 25 -64 -3 -70 -1 -50 15 25 19 132 18 151 -1 16 -15 61 -20 52 -5 -3 5
3 11 14 14 11 3 23 1 26 -4 10 -16 24 -10 24 11 0 11 5 20 10 20 13 0 13 -6 0
-31 -6 -10 -18 -19 -28 -19 -15 0 -15 -2 -2 -10 20 -13 43 -13 35 0 -3 6 5 10
18 10 14 0 27 7 31 15 3 8 12 15 21 15 9 0 15 9 15 23 0 31 12 45 40 49 14 2
31 7 38 12 7 4 19 3 27 -4 11 -10 15 -7 20 13 4 14 13 28 21 31 23 9 16 26
-10 26 -13 0 -26 -7 -30 -15 -3 -8 -12 -15 -21 -15 -8 0 -15 -4 -15 -10 0 -5
-4 -10 -10 -10 -5 0 -10 11 -10 25 0 15 6 25 14 25 8 0 16 5 18 11 2 5 39 13
83 16 56 4 84 11 92 22 7 9 13 12 13 6 1 -5 14 15 30 45 l29 55 1 -42 c0 -53
17 -56 26 -5 4 20 10 39 13 42 9 7 30 42 41 67 8 19 14 21 46 16 27 -4 35 -3
30 5 -4 7 -1 12 6 12 7 0 19 4 27 9 12 8 12 12 -2 26 -21 21 -57 11 -57 -16 0
-10 -7 -19 -15 -19 -20 0 -20 54 0 72 31 28 44 38 51 38 4 0 17 11 30 25 25
28 40 32 46 13 3 -9 9 -8 21 4 9 9 17 21 17 26 0 6 5 12 11 14 16 5 20 68 4
68 -7 0 -12 11 -12 25 0 26 21 52 31 37 8 -13 56 -2 56 12 0 22 -25 65 -40 70
-8 3 -4 4 10 3 28 -2 50 9 50 24 0 5 -7 9 -15 9 -26 0 -19 69 10 96 14 13 25
33 25 44 0 12 4 19 8 16 5 -3 17 4 26 16 18 20 18 22 -4 38 -12 9 -21 22 -19
29 3 8 12 5 26 -9 23 -21 63 -27 63 -9 0 5 -5 7 -10 4 -5 -3 -10 3 -10 15 0
12 -4 19 -8 16 -8 -5 -42 28 -42 39 0 3 -9 14 -20 25 -23 23 -26 40 -6 40 8 0
17 11 20 24 3 13 15 26 26 29 15 4 20 13 20 38 0 26 -3 30 -12 21 -20 -20 -28
-14 -28 25 0 20 3 33 6 30 12 -12 44 13 44 34 0 29 -18 59 -35 59 -8 0 -15 5
-15 10 0 6 3 9 8 8 4 -2 19 7 32 20 l25 24 -30 23 c-34 28 -28 40 20 37 26 -2
35 1 35 13 0 8 -7 15 -15 15 -12 0 -35 28 -35 44 0 3 14 6 30 6 21 0 30 -5 30
-16 0 -9 5 -14 12 -12 18 6 21 28 4 28 -9 0 -16 4 -16 9 0 5 -14 11 -31 15
-18 3 -42 17 -55 31 -13 14 -32 25 -44 25 -11 0 -20 5 -20 10 0 6 9 10 19 10
11 0 26 3 35 6 11 4 16 1 16 -10 0 -10 9 -16 25 -16 29 0 30 3 9 29 -10 11
-24 16 -35 14 -14 -4 -19 0 -19 16 0 11 -4 21 -10 21 -5 0 -10 6 -10 14 0 9 7
12 19 9 10 -3 22 0 25 6 4 6 0 11 -8 11 -9 0 -16 7 -16 15 0 8 -7 15 -15 15
-8 0 -15 9 -15 20 0 11 -4 20 -10 20 -5 0 -10 16 -10 35 0 19 5 35 10 35 6 0
10 16 10 35 0 24 -5 35 -15 35 -8 0 -15 -4 -15 -10 0 -5 -6 -10 -13 -10 -9 0
-12 11 -9 35 3 22 10 35 19 35 8 0 13 6 10 13 -2 6 -15 12 -28 12 -19 0 -24 5
-24 24 0 13 6 26 13 29 6 2 12 -3 12 -12 0 -22 13 -20 35 4 19 21 14 26 -35
32 -22 3 -25 7 -23 41 2 34 0 37 -23 37 -14 0 -32 7 -40 15 -9 8 -20 15 -25
15 -5 0 -9 -7 -9 -15 0 -8 -8 -15 -18 -15 -13 0 -18 7 -17 23 1 20 8 22 59 25
66 3 75 27 10 27 l-39 0 -3 48 c-2 26 -8 47 -13 47 -5 0 -9 -8 -7 -17 2 -12
-4 -19 -19 -21 -24 -4 -31 12 -11 24 8 5 7 10 -3 18 -32 24 -48 58 -38 78 6
11 8 24 5 31 -2 7 -8 2 -11 -10 -9 -28 -25 -30 -25 -3 0 11 5 20 10 20 6 0 10
9 10 20 0 14 -7 20 -21 20 -11 0 -17 -4 -14 -10 3 -5 1 -10 -4 -10 -6 0 -11 5
-11 12 0 6 -3 9 -6 5 -4 -3 -14 1 -23 10 -11 12 -13 17 -3 21 6 2 12 15 12 28
0 21 -5 24 -35 24 -19 0 -35 3 -35 6 0 18 24 44 40 44 11 0 20 7 20 15 0 13
-10 15 -49 11 -37 -3 -51 -1 -55 10 -8 21 -26 17 -26 -6 0 -11 -4 -20 -9 -20
-6 0 -8 15 -5 33 7 48 -7 63 -39 42 -16 -10 -34 -14 -47 -10 -27 9 -25 18 10
38 37 22 38 33 2 40 -19 4 -28 12 -29 28 -3 29 -21 41 -55 35 -21 -4 -28 -1
-28 10 0 18 -47 64 -66 64 -8 0 -14 5 -14 10 0 6 -10 10 -22 11 l-23 0 23 11
c30 15 28 38 -3 38 -20 0 -25 -5 -25 -25 0 -15 -6 -25 -14 -25 -9 0 -13 9 -11
26 1 16 -5 32 -15 41 -10 9 -15 23 -13 34 7 24 -14 25 -21 2 -7 -20 -65 -57
-75 -48 -3 3 -1 9 4 13 14 10 19 62 6 62 -6 0 -11 5 -11 10 0 6 11 10 25 10
14 0 25 5 25 10 0 6 -11 10 -25 10 -14 0 -25 -4 -25 -10 0 -15 -57 -12 -63 3
-2 6 -8 0 -12 -15 -9 -34 -25 -37 -25 -5 0 20 -30 57 -46 57 -10 0 -34 -28
-34 -39 0 -12 -11 -14 -34 -5 -24 9 -19 33 9 46 14 6 25 15 25 20 0 4 -11 8
-25 8 -14 0 -25 5 -25 10 0 6 -6 10 -14 10 -8 0 -16 7 -20 15 -6 17 -42 20
-51 5 -3 -5 -15 -10 -26 -10 -10 0 -19 5 -19 10 0 6 -7 10 -15 10 -8 0 -15 5
-15 11 0 5 -4 7 -10 4 -6 -4 -10 8 -11 27 0 18 -3 27 -6 21 -7 -19 -73 -17
-73 2 0 19 -19 20 -26 2 -5 -14 -38 -16 -50 -4 -14 14 -24 6 -24 -19 0 -34
-24 -26 -28 9 -3 21 -9 27 -28 27 -15 0 -24 -6 -24 -15 0 -18 -16 -20 -23 -2
-3 7 -25 13 -56 15 -40 2 -51 -1 -51 -13 0 -8 -4 -15 -10 -15 -5 0 -10 7 -10
15 0 11 -11 15 -42 14 -24 0 -37 -3 -30 -6 26 -10 10 -23 -28 -23 -22 0 -40 5
-40 10 0 6 -7 10 -16 10 -8 0 -12 -4 -9 -10 3 -5 0 -10 -7 -10 -11 0 -11 -2 0
-9 8 -5 0 -8 -23 -9 -19 -1 -35 3 -35 8 0 6 11 10 25 10 16 0 25 6 25 15 0 13
-24 15 -157 14 -87 -1 -147 -4 -133 -8 l25 -7 -24 -13 c-22 -12 -27 -11 -42 8
-14 17 -28 21 -73 21 l-56 0 0 -40z m720 20 c0 -5 -7 -7 -15 -4 -8 4 -15 8
-15 10 0 2 7 4 15 4 8 0 15 -4 15 -10z m-80 -36 c0 -13 5 -24 10 -24 6 0 10
-4 10 -10 0 -5 -9 -10 -20 -10 -21 0 -37 38 -26 66 8 22 26 7 26 -22z m287
-40 c-3 -3 -12 -4 -19 -1 -8 3 -5 6 6 6 11 1 17 -2 13 -5z m-126 -14 c10 0 19
-4 19 -10 0 -5 -16 -10 -35 -10 -25 0 -35 4 -35 16 0 11 5 14 16 10 9 -3 24
-6 35 -6z m149 -10 c0 -5 -4 -10 -9 -10 -6 0 -13 5 -16 10 -3 6 1 10 9 10 9 0
16 -4 16 -10z m220 0 c0 -5 -4 -10 -10 -10 -5 0 -10 5 -10 10 0 6 5 10 10 10
6 0 10 -4 10 -10z m288 -140 c-1 -16 -4 -30 -8 -30 -10 0 -21 41 -14 52 11 18
23 6 22 -22z m-112 -17 c-11 -11 -17 4 -9 23 7 18 8 18 11 1 2 -10 1 -21 -2
-24z m-2 -24 c-8 -14 -34 -10 -34 5 0 9 7 12 20 9 11 -3 17 -9 14 -14z m216
-16 c0 -12 -8 -18 -25 -18 -14 0 -25 3 -25 6 0 5 33 24 48 28 1 1 2 -7 2 -16z
m-130 -27 c0 -3 -4 -8 -10 -11 -5 -3 -10 -1 -10 4 0 6 5 11 10 11 6 0 10 -2
10 -4z m24 -37 c-3 -5 -10 -7 -15 -3 -5 3 -7 10 -3 15 3 5 10 7 15 3 5 -3 7
-10 3 -15z m134 -17 c2 -7 -3 -12 -12 -12 -9 0 -16 7 -16 16 0 17 22 14 28 -4z
m-2718 -87 c0 -14 -4 -25 -9 -25 -6 0 -8 36 -2 48 5 10 11 -2 11 -23z m200 5
c0 -5 -2 -10 -4 -10 -3 0 -8 5 -11 10 -3 6 -1 10 4 10 6 0 11 -4 11 -10z
m2720 0 c0 -5 -4 -10 -10 -10 -5 0 -10 5 -10 10 0 6 5 10 10 10 6 0 10 -4 10
-10z m100 -215 c0 -14 -4 -25 -10 -25 -5 0 -10 11 -10 25 0 14 5 25 10 25 6 0
10 -11 10 -25z m109 -43 c-12 -2 -27 5 -34 15 -21 28 15 38 37 9 16 -20 16
-21 -3 -24z m50 -51 c-3 -6 -10 -7 -18 -2 -7 5 -10 14 -6 21 9 14 29 -2 24
-19z m21 -80 c0 -11 -4 -22 -9 -25 -5 -3 -8 6 -8 19 0 14 3 25 8 25 5 0 9 -9
9 -19z m268 -303 c-3 -7 -11 -13 -18 -13 -7 0 -15 6 -17 13 -3 7 4 12 17 12
13 0 20 -5 18 -12z m-88 -18 c0 -5 -8 -10 -17 -10 -15 0 -16 2 -3 10 19 12 20
12 20 0z m75 -50 c3 -5 -1 -10 -10 -10 -9 0 -13 5 -10 10 3 6 8 10 10 10 2 0
7 -4 10 -10z m2 -56 c-3 -3 -12 -4 -19 -1 -8 3 -5 6 6 6 11 1 17 -2 13 -5z
m23 -54 c0 -5 -2 -10 -4 -10 -3 0 -8 5 -11 10 -3 6 -1 10 4 10 6 0 11 -4 11
-10z m-1820 -26 c0 -7 7 -20 16 -29 13 -12 14 -19 5 -28 -8 -8 -11 -7 -11 6 0
9 -4 17 -8 17 -5 0 -14 11 -19 23 -9 19 -8 24 3 24 8 0 14 -6 14 -13z m306
-31 c-10 -10 -19 5 -10 18 6 11 8 11 12 0 2 -7 1 -15 -2 -18z m34 -49 c0 -8
-4 -14 -10 -14 -5 0 -10 9 -10 21 0 11 5 17 10 14 6 -3 10 -13 10 -21z m-632
-34 c7 0 12 -4 12 -10 0 -5 -9 -10 -20 -10 -12 0 -20 7 -20 16 0 10 -6 14 -15
10 -15 -5 -20 5 -8 17 3 4 14 0 23 -8 9 -8 22 -15 28 -15z m352 21 c0 -6 -4
-13 -10 -16 -5 -3 -10 1 -10 9 0 9 5 16 10 16 6 0 10 -4 10 -9z m20 -30 c0 -5
3 -16 6 -25 4 -11 1 -16 -10 -16 -10 0 -16 9 -16 25 0 14 5 25 10 25 6 0 10
-4 10 -9z m260 -33 c0 -32 3 -39 10 -28 8 13 10 12 10 -2 0 -10 -6 -18 -12
-18 -9 0 -9 -3 -2 -8 19 -13 25 -42 9 -48 -8 -4 -15 -19 -15 -34 0 -23 4 -27
25 -25 17 2 25 -2 25 -11 0 -9 -5 -12 -11 -9 -6 4 -13 -3 -16 -15 -5 -18 -11
-21 -36 -16 -16 3 -42 6 -58 6 -24 0 -29 4 -29 26 0 14 -4 23 -9 20 -5 -4 -7
3 -4 14 3 11 0 20 -6 20 -6 0 -11 -8 -11 -17 0 -14 -2 -15 -12 -4 -11 10 -10
15 5 25 9 7 17 18 17 25 0 6 5 11 10 11 6 0 10 11 10 25 0 14 5 25 12 25 6 0
8 -3 5 -6 -13 -13 14 -45 36 -42 20 3 22 10 25 66 3 69 22 86 22 20z m250 -3
c0 -19 -4 -35 -10 -35 -5 0 -10 16 -10 35 0 19 5 35 10 35 6 0 10 -16 10 -35z
m-824 -21 c-3 -8 -2 -12 4 -9 12 8 59 -26 60 -42 0 -7 4 -13 8 -13 4 0 16 -14
26 -31 19 -32 52 -69 61 -69 3 0 5 8 6 18 0 13 3 11 12 -7 9 -19 9 -25 -1 -29
-6 -2 -12 -10 -12 -18 0 -8 -9 -14 -21 -14 -11 0 -17 -4 -14 -10 3 -5 -1 -10
-9 -10 -9 0 -16 -6 -16 -14 0 -24 -41 -31 -57 -10 -7 10 -13 24 -13 31 0 7
-11 13 -25 13 -20 0 -25 5 -25 25 0 14 -4 25 -9 25 -13 0 -41 29 -41 42 0 5 6
8 13 5 6 -2 11 -10 9 -17 -2 -9 4 -11 20 -6 13 3 31 6 41 6 9 0 17 7 17 15 0
8 5 15 10 15 7 0 7 7 0 21 -7 11 -9 27 -6 35 3 9 -1 14 -12 14 -27 0 -45 17
-39 34 4 9 9 16 13 16 3 0 3 -7 0 -16z m344 -34 c0 -38 4 -50 15 -50 8 0 15
-7 15 -15 0 -8 6 -15 14 -15 8 0 18 -5 22 -12 5 -7 3 -8 -6 -3 -10 6 -12 3 -8
-13 6 -20 2 -22 -32 -22 -24 0 -42 -6 -47 -15 -5 -9 -17 -12 -31 -8 -26 6 -29
23 -4 23 14 0 13 4 -7 19 -18 14 -31 17 -52 11 -20 -6 -29 -4 -33 6 -3 8 1 14
9 14 10 0 15 10 15 30 0 17 -4 30 -10 30 -5 0 -10 10 -10 23 1 20 2 20 11 4 7
-12 17 -16 31 -11 12 4 24 1 28 -7 7 -10 11 -10 24 1 9 7 14 15 12 17 -6 6 26
43 36 43 5 0 8 -22 8 -50z m460 -65 c0 -26 -5 -45 -11 -45 -6 0 -8 -7 -5 -16
4 -9 1 -23 -5 -30 -6 -8 -8 -21 -5 -30 9 -23 -5 -99 -15 -83 -4 7 -6 16 -3 20
2 4 -15 10 -37 14 -25 4 -37 10 -29 15 8 5 5 9 -10 13 -15 4 -21 11 -17 21 4
9 2 16 -3 16 -6 0 -10 -5 -10 -11 0 -5 -4 -7 -10 -4 -16 10 -12 25 8 25 13 0
14 2 3 9 -9 6 -10 11 -2 15 6 4 9 12 6 17 -4 5 -2 9 3 9 5 0 12 9 15 20 3 11
10 20 16 20 6 0 19 -9 28 -20 10 -11 21 -20 25 -20 17 0 38 34 38 61 0 16 5
29 10 29 6 0 10 -20 10 -45z m-1166 -23 c3 -5 -15 -9 -40 -11 -25 -1 -44 2
-44 9 0 12 76 14 84 2z m150 -67 c13 -14 31 -25 40 -25 9 0 27 -11 40 -25 13
-14 31 -25 40 -25 10 0 14 -5 10 -12 -4 -7 -3 -8 4 -4 7 4 12 14 12 22 0 8 9
14 20 14 16 0 18 -4 12 -22 -10 -28 -4 -58 11 -58 6 0 2 -6 -8 -14 -11 -8 -23
-12 -27 -10 -7 4 -9 -6 -8 -31 1 -14 -31 -35 -51 -35 -12 0 -20 3 -16 6 3 3
-2 14 -11 24 -14 17 -18 17 -36 4 -26 -18 -36 -18 -36 1 0 8 -7 15 -16 15 -8
0 -12 5 -9 10 4 6 -7 10 -24 10 -45 0 -40 25 6 28 50 4 63 17 63 63 0 35 -3
39 -25 39 -14 0 -25 4 -25 10 0 5 -11 12 -25 16 -35 9 -31 24 5 24 20 0 39 -9
54 -25z m466 15 c0 -5 -7 -10 -15 -10 -8 0 -15 5 -15 10 0 6 7 10 15 10 8 0
15 -4 15 -10z m750 -5 c0 -8 -4 -15 -10 -15 -5 0 -10 7 -10 15 0 8 5 15 10 15
6 0 10 -7 10 -15z m1184 -31 c7 -18 0 -34 -15 -34 -5 0 -9 11 -9 25 0 28 15
34 24 9z m-1311 -41 c-3 -7 0 -13 7 -13 6 0 8 -5 4 -12 -5 -8 -2 -9 10 -5 10
4 22 7 27 7 5 0 9 7 9 15 0 8 7 15 15 15 8 0 14 5 13 11 -2 6 3 14 10 16 17 6
15 -22 -3 -41 -8 -8 -15 -19 -15 -25 0 -6 -4 -11 -10 -11 -5 0 -10 -6 -10 -14
0 -7 -7 -19 -15 -26 -8 -7 -15 -21 -15 -31 0 -19 -28 -59 -42 -59 -5 0 -8 7
-8 15 0 8 -4 15 -9 15 -5 0 -13 10 -17 22 -3 12 -14 29 -22 38 -14 13 -14 15
3 19 10 2 13 6 7 10 -5 3 -12 17 -13 31 -3 21 0 26 24 28 16 2 31 10 34 19 4
11 8 12 13 2 5 -7 6 -18 3 -26z m257 -128 c0 -8 -4 -15 -10 -15 -5 0 -10 7
-10 15 0 8 5 15 10 15 6 0 10 -7 10 -15z m-137 -22 c-7 -3 -13 -13 -13 -24 0
-18 20 -25 58 -20 6 1 12 -3 12 -9 0 -5 -4 -10 -10 -10 -5 0 -10 -6 -10 -13 0
-7 -10 -13 -21 -14 -27 -2 -28 -4 -31 -34 -2 -15 2 -23 10 -21 6 1 12 -5 12
-13 0 -8 7 -15 15 -15 11 0 15 -11 15 -40 0 -22 5 -40 10 -40 6 0 10 -4 10
-10 0 -5 -3 -9 -7 -9 -38 6 -61 -3 -65 -25 -4 -22 -1 -25 35 -31 27 -5 35 -10
26 -15 -7 -5 -17 -6 -21 -4 -4 3 -8 -1 -8 -10 0 -8 -3 -21 -6 -30 -5 -12 0
-16 19 -16 14 0 29 -4 32 -10 4 -6 -14 -10 -47 -11 -29 0 -63 -2 -76 -5 -13
-2 -30 3 -38 11 -9 8 -11 15 -6 15 5 0 12 18 16 40 3 22 11 40 16 40 14 0 13
117 -1 122 -6 2 -10 12 -8 23 4 18 5 18 22 1 16 -17 17 -16 17 3 0 12 -4 21
-10 21 -5 0 -10 6 -10 14 0 8 -7 16 -15 20 -8 3 -15 15 -15 27 0 13 -7 30 -16
40 -15 16 -14 19 5 31 12 7 21 17 21 23 0 6 19 9 48 6 26 -2 41 -6 35 -8z
m112 -3 c3 -5 -1 -10 -9 -10 -9 0 -16 5 -16 10 0 6 4 10 9 10 6 0 13 -4 16
-10z m-1700 -30 c-3 -5 -10 -10 -16 -10 -5 0 -9 5 -9 10 0 6 7 10 16 10 8 0
12 -4 9 -10z m1670 0 c8 -13 -15 -13 -35 0 -12 8 -11 10 7 10 12 0 25 -4 28
-10z m-1710 -20 c-3 -5 -19 -10 -35 -10 -16 0 -32 5 -35 10 -4 6 10 10 35 10
25 0 39 -4 35 -10z m235 -5 c0 -8 5 -15 11 -15 5 0 8 4 5 9 -3 4 7 6 22 3 15
-3 31 -11 35 -18 4 -8 22 -14 38 -14 18 0 28 4 24 10 -3 6 0 10 9 10 8 0 17 6
19 13 4 7 8 3 12 -10 4 -13 11 -23 16 -23 16 0 10 -77 -6 -84 -8 -3 -12 -12
-9 -21 4 -8 -1 -17 -10 -21 -10 -4 -16 -18 -16 -40 0 -19 -4 -34 -10 -34 -5 0
-10 9 -10 20 0 11 -6 20 -12 21 -10 0 -10 2 0 6 23 9 12 23 -18 23 -16 0 -30
-4 -30 -10 0 -5 -9 -10 -20 -10 -11 0 -20 5 -20 10 0 6 -9 10 -21 10 -15 0
-19 4 -15 16 3 9 6 27 6 40 0 13 3 23 8 23 4 -1 14 -1 22 0 11 1 11 4 2 13 -7
7 -12 20 -12 29 0 19 -19 29 -58 29 -37 0 -72 11 -72 21 0 5 25 9 55 9 42 0
55 -3 55 -15z m-455 -55 c-21 -8 -35 -4 -35 9 0 5 12 6 27 3 24 -5 25 -6 8
-12z m1395 -71 c3 -5 17 -10 30 -13 14 -2 24 -9 23 -15 -2 -6 4 -11 12 -11 8
0 15 -6 15 -14 0 -8 5 -16 12 -18 17 -6 18 -124 1 -121 -7 2 -13 -3 -13 -10 0
-23 -15 -35 -55 -41 -35 -6 -45 -3 -68 18 -43 40 -31 103 20 108 46 4 53 -1
53 -37 0 -31 -3 -35 -25 -35 -14 0 -25 5 -25 10 0 6 -7 10 -15 10 -8 0 -15 -4
-15 -10 0 -5 6 -10 14 -10 8 0 16 -7 20 -15 3 -8 18 -15 33 -15 21 0 33 8 46
31 26 46 22 86 -12 120 -26 26 -36 29 -93 29 -45 -1 -69 -6 -83 -18 -25 -21
-58 -72 -48 -72 5 0 0 -5 -9 -11 -10 -5 -18 -15 -18 -20 0 -6 5 -7 10 -4 6 3
10 -1 10 -9 0 -9 -4 -16 -10 -16 -5 0 -10 -11 -10 -25 0 -14 5 -25 11 -25 7 0
9 -10 5 -24 -5 -19 -1 -26 14 -31 13 -4 20 -15 20 -31 0 -19 5 -24 25 -24 18
0 25 -5 25 -20 0 -15 9 -21 40 -26 39 -6 40 -8 40 -45 0 -29 -4 -39 -16 -39
-8 0 -12 -4 -9 -10 3 -5 -1 -10 -9 -10 -8 0 -18 10 -22 22 -15 47 -53 67 -79
41 -13 -13 -15 -10 -15 26 0 30 -4 41 -15 41 -8 0 -15 5 -15 11 0 6 -9 9 -19
6 -17 -4 -18 -2 -9 25 8 23 7 33 -6 47 -16 18 -23 77 -8 67 4 -2 14 -1 22 5
12 7 10 9 -7 9 -18 0 -23 6 -23 26 0 14 3 23 8 21 4 -3 13 1 19 9 8 8 9 15 3
19 -20 12 -10 35 15 35 20 0 25 5 25 25 0 20 5 25 25 25 16 0 25 6 25 15 0 10
10 15 30 15 17 0 30 4 30 9 0 12 63 11 70 0z m-965 -29 c-3 -5 -10 -10 -16
-10 -5 0 -9 5 -9 10 0 6 7 10 16 10 8 0 12 -4 9 -10z m1585 6 c0 -2 -9 -6 -20
-9 -11 -3 -18 -1 -14 4 5 9 34 13 34 5z m-55 -26 c4 -6 -7 -10 -24 -10 -17 0
-31 5 -31 10 0 6 11 10 24 10 14 0 28 -4 31 -10z m-1435 -99 c8 -32 15 -40 43
-46 30 -6 31 -7 11 -17 -18 -8 -21 -20 -23 -76 -2 -75 -13 -95 -33 -63 -17 27
-48 28 -48 1 0 -11 -7 -20 -15 -20 -8 0 -15 -8 -16 -17 0 -11 -5 -7 -11 10
-11 30 -23 32 -85 12 -15 -5 -23 -3 -23 4 0 6 7 11 15 11 8 0 15 6 15 13 0 8
4 7 10 -3 7 -11 10 -8 10 16 0 16 5 35 12 42 9 9 9 12 0 12 -7 0 -12 11 -12
25 0 24 -3 25 -55 25 -30 0 -55 -4 -55 -10 0 -5 -22 -10 -50 -10 -27 0 -50 5
-50 10 0 6 18 10 39 10 22 0 41 5 43 12 3 8 27 13 63 13 39 1 60 6 63 14 3 10
6 10 12 1 4 -6 23 -12 43 -13 43 -1 77 25 77 60 0 34 8 28 20 -16z m-400 -111
c0 -5 -9 -10 -21 -10 -11 0 -28 -7 -36 -16 -13 -13 -17 -13 -24 -2 -6 8 -3 14
6 16 8 2 15 8 15 13 0 5 14 9 30 9 17 0 30 -4 30 -10z m1580 -22 c0 9 14 12
52 10 44 -3 52 -6 54 -25 3 -15 -1 -23 -11 -23 -8 0 -15 -7 -15 -16 0 -8 5
-12 10 -9 6 3 10 -1 10 -9 0 -12 -10 -16 -35 -16 -19 0 -35 5 -35 10 0 6 -7
10 -15 10 -9 0 -15 -9 -15 -25 0 -16 6 -25 15 -25 8 0 15 -4 15 -10 0 -5 -11
-10 -25 -10 -24 0 -36 -24 -16 -32 4 -1 11 -12 15 -24 4 -14 2 -21 -8 -21 -9
0 -13 4 -10 9 4 5 -3 12 -15 15 -12 3 -21 9 -21 14 0 5 -7 9 -15 9 -8 0 -15 5
-15 10 0 6 -4 10 -10 10 -5 0 -10 -8 -10 -17 0 -9 -7 -25 -17 -35 -20 -23 -63
-24 -63 -2 0 11 -6 15 -20 11 -10 -3 -21 0 -25 7 -3 6 -4 -4 -2 -21 3 -27 1
-31 -11 -21 -10 9 -15 9 -21 -1 -7 -10 -13 -9 -30 5 -25 22 -31 100 -7 91 8
-3 31 -9 50 -13 28 -5 37 -3 42 10 7 18 74 23 74 6 0 -5 7 -10 15 -10 8 0 15
7 15 16 0 8 -4 12 -10 9 -5 -3 -10 -1 -10 5 0 6 14 13 31 17 19 3 34 14 36 25
6 19 33 26 33 7 0 -5 5 -7 11 -3 8 4 8 9 0 17 -6 6 -11 22 -11 37 0 20 2 22
10 10 7 -11 10 -11 10 -2z m-1670 -28 c0 -5 -9 -10 -20 -10 -11 0 -20 5 -20
10 0 6 9 10 20 10 11 0 20 -4 20 -10z m-155 -100 c3 -5 1 -10 -4 -10 -6 0 -11
5 -11 10 0 6 2 10 4 10 3 0 8 -4 11 -10z m390 0 c3 -5 -1 -10 -9 -10 -9 0 -16
5 -16 10 0 6 4 10 9 10 6 0 13 -4 16 -10z m230 -43 c5 -19 12 -23 40 -21 27 3
34 -1 37 -19 5 -24 2 -157 -4 -162 -1 -2 -16 -1 -31 2 -21 4 -25 8 -15 14 10
7 9 9 -4 9 -21 0 -25 -45 -5 -53 22 -9 -15 -28 -50 -25 -23 2 -38 -4 -52 -21
-12 -13 -21 -28 -21 -33 0 -4 -4 -8 -10 -8 -15 0 -12 31 4 44 7 6 16 30 20 53
5 36 3 43 -14 48 -11 3 -20 11 -20 16 0 5 -7 9 -15 9 -9 0 -15 9 -15 25 0 16
6 25 15 25 8 0 15 7 15 15 0 9 6 12 15 9 25 -10 85 5 85 21 0 8 -6 15 -12 15
-10 0 -10 2 0 9 7 4 14 18 15 29 2 29 15 28 22 -1z m1125 -37 c0 -5 -4 -10
-10 -10 -5 0 -10 5 -10 10 0 6 5 10 10 10 6 0 10 -4 10 -10z m-50 -44 c0 -3
-4 -8 -10 -11 -5 -3 -10 -1 -10 4 0 6 5 11 10 11 6 0 10 -2 10 -4z m-130 -26
c0 -5 -4 -10 -10 -10 -5 0 -10 5 -10 10 0 6 5 10 10 10 6 0 10 -4 10 -10z
m-1110 -30 c0 -5 -9 -10 -19 -10 -11 0 -26 -7 -35 -15 -8 -8 -19 -15 -25 -15
-6 0 -11 -5 -11 -11 0 -5 -4 -8 -9 -4 -5 3 -12 1 -16 -5 -4 -6 -11 -8 -16 -5
-5 4 -9 -1 -9 -9 0 -9 -5 -16 -11 -16 -18 0 -89 -54 -89 -67 0 -7 -5 -13 -11
-13 -7 0 -18 -8 -25 -17 -13 -17 -13 -17 -14 0 0 9 5 17 10 17 6 0 10 6 10 13
0 17 33 44 48 39 7 -2 10 2 6 12 -4 11 -1 16 10 16 9 0 28 11 42 25 14 14 31
25 39 25 8 0 15 7 15 15 0 8 9 15 20 15 11 0 20 5 20 10 0 6 16 10 35 10 19 0
35 -4 35 -10z m2523 -76 c12 -12 -16 -41 -35 -36 -25 6 -23 22 3 22 11 0 17 5
14 10 -7 11 8 14 18 4z m-2198 -114 c33 0 33 0 28 -40 -5 -36 -3 -40 15 -40
14 0 20 -5 16 -13 -2 -7 -6 -31 -7 -53 -2 -36 -4 -39 -29 -36 -36 4 -37 -19
-3 -46 21 -17 22 -21 9 -26 -9 -3 -31 -6 -50 -6 -29 0 -34 -3 -34 -24 0 -13
-7 -26 -15 -30 -8 -3 -15 -15 -15 -26 0 -11 -4 -20 -10 -20 -5 0 -10 11 -10
25 0 14 5 25 10 25 6 0 10 11 10 25 0 14 -4 25 -10 25 -5 0 -10 7 -10 15 0 8
5 15 10 15 6 0 10 5 10 10 0 6 -8 10 -18 10 -10 0 -23 5 -29 11 -22 22 -60 18
-74 -7 -7 -13 -16 -24 -20 -24 -3 0 -25 -18 -47 -40 -39 -39 -62 -50 -62 -30
0 20 34 50 45 40 8 -7 10 -1 7 20 -3 23 0 30 12 30 9 0 16 4 16 9 0 5 10 13
22 17 31 9 48 29 48 53 0 21 13 26 58 22 19 -1 22 3 23 31 0 28 2 30 9 13 8
-18 9 -18 10 5 2 14 2 29 1 34 -3 15 22 37 36 31 8 -3 30 -5 48 -5z m-625 -40
c0 -5 -4 -10 -10 -10 -5 0 -10 5 -10 10 0 6 5 10 10 10 6 0 10 -4 10 -10z
m-100 -135 c0 -8 -4 -15 -10 -15 -5 0 -10 7 -10 15 0 8 5 15 10 15 6 0 10 -7
10 -15z m861 -25 c8 12 9 9 7 -9 -4 -32 -33 -35 -52 -5 -27 40 -20 59 10 27
21 -23 27 -25 35 -13z m-1191 -42 c0 -5 -4 -8 -10 -8 -5 0 -10 10 -10 23 0 18
2 19 10 7 5 -8 10 -18 10 -22z m1279 -14 c2 -10 9 -23 17 -27 8 -4 14 -16 14
-27 0 -10 9 -21 19 -25 12 -3 22 -19 26 -38 4 -18 17 -40 28 -49 22 -17 22
-18 1 -18 -11 0 -26 -6 -32 -12 -10 -10 -15 -10 -23 2 -9 12 -10 12 -5 -3 3
-10 6 -23 6 -28 0 -5 9 -9 20 -9 11 0 23 -7 26 -15 8 -20 51 -19 62 1 8 15 11
15 35 -1 25 -16 47 -14 47 6 0 5 -7 9 -15 9 -8 0 -15 7 -15 15 0 19 26 20 37
0 5 -9 13 -11 22 -5 12 7 12 11 -2 24 -9 9 -13 24 -10 32 5 13 9 11 22 -10 9
-14 23 -29 33 -32 9 -3 18 -15 20 -27 2 -15 12 -23 32 -27 17 -3 29 -8 28 -12
-7 -27 -1 -40 17 -35 12 3 22 -1 25 -9 6 -16 56 -19 56 -4 0 12 77 13 82 1 7
-20 68 -16 68 4 0 8 7 15 15 15 8 0 15 4 15 9 0 5 11 4 25 -2 14 -7 25 -16 25
-22 0 -5 12 -16 27 -22 32 -15 55 -17 33 -3 -12 8 -9 10 13 10 22 0 27 -4 27
-25 0 -23 4 -25 45 -25 33 0 45 4 45 15 0 8 9 20 20 27 11 7 20 18 20 25 0 7
5 13 10 13 6 0 10 -7 10 -15 0 -10 10 -15 30 -15 20 0 30 -5 30 -15 0 -10 -10
-15 -29 -15 -17 0 -33 -4 -36 -10 -3 -5 -17 -10 -31 -10 -15 0 -24 -6 -24 -15
0 -8 -9 -15 -20 -15 -15 0 -19 -6 -18 -25 1 -14 8 -25 15 -25 7 0 12 3 10 8
-2 7 6 12 24 12 5 0 7 -6 3 -12 -4 -7 -4 -10 1 -6 4 4 16 3 25 -2 23 -12 15
-50 -10 -50 -17 0 -34 -43 -22 -55 12 -11 8 -45 -5 -45 -7 0 -13 4 -13 8 0 5
-6 9 -13 9 -7 0 -24 3 -39 6 -17 5 -31 2 -40 -7 -8 -7 -24 -17 -36 -20 -12 -4
-25 -18 -28 -32 -8 -31 4 -114 17 -114 5 0 9 -25 9 -56 0 -34 4 -53 10 -49 6
3 10 -4 10 -17 0 -36 11 -68 21 -62 5 3 9 0 9 -7 0 -12 58 -109 71 -119 4 -3
8 -14 10 -25 2 -11 14 -24 27 -30 12 -5 22 -18 22 -28 0 -10 7 -25 15 -33 8
-9 15 -20 15 -25 0 -5 -7 -9 -15 -9 -8 0 -15 7 -15 15 0 8 -22 36 -49 63 -26
26 -51 57 -55 70 -4 12 -12 22 -17 22 -5 0 -9 7 -9 15 0 8 -4 15 -9 15 -5 0
-12 11 -15 25 -4 14 -11 25 -16 25 -6 0 -10 16 -10 35 0 19 -4 35 -9 35 -5 0
-12 13 -16 30 -4 16 -11 30 -16 30 -5 0 -9 14 -9 30 0 17 -7 41 -15 54 -9 13
-15 39 -14 57 3 64 -1 81 -21 86 -11 3 -20 9 -20 14 0 5 9 18 20 29 21 21 27
60 9 60 -14 0 -39 26 -39 41 0 9 -5 8 -17 -3 -18 -14 -53 -14 -53 2 0 4 10 10
22 13 17 5 19 9 9 20 -16 20 -98 10 -122 -14 -11 -11 -23 -19 -29 -19 -5 0
-10 -16 -10 -35 0 -45 -25 -58 -51 -27 -23 29 -108 31 -139 4 -20 -16 -21 -27
-20 -205 1 -154 4 -187 16 -187 10 0 14 -13 14 -46 0 -32 -4 -44 -12 -42 -7 3
-14 14 -16 26 -2 12 -7 20 -11 18 -4 -3 -8 11 -9 31 -2 20 -7 44 -13 55 -6 10
-13 81 -16 158 -5 124 -4 140 12 156 14 15 16 28 11 76 -6 49 -4 58 9 58 8 0
15 7 15 15 0 8 5 15 12 15 9 0 9 3 0 12 -7 7 -12 22 -12 35 0 13 -5 23 -10 23
-6 0 -16 11 -22 25 -11 24 -16 25 -89 25 l-78 0 -7 -57 c-6 -53 -16 -72 -36
-73 -5 0 -8 7 -8 15 0 8 7 15 15 15 28 0 15 30 -31 75 -49 48 -59 53 -68 33
-5 -10 -7 -10 -12 0 -9 19 -34 14 -34 -8 0 -11 -7 -20 -15 -20 -9 0 -15 -9
-15 -25 0 -14 -4 -25 -10 -25 -5 0 -10 -11 -10 -25 0 -14 -7 -28 -15 -31 -8
-4 -15 -18 -15 -34 0 -16 -4 -30 -10 -32 -5 -2 -12 -40 -16 -85 -4 -46 -10
-83 -14 -83 -4 0 -11 -10 -16 -22 -6 -17 -9 -8 -11 37 -3 36 0 61 6 63 6 2 11
24 11 48 0 30 5 46 15 50 10 4 15 20 15 45 0 21 5 39 10 39 6 0 10 16 10 35 0
19 5 35 10 35 6 0 14 8 17 17 4 9 18 28 32 41 14 13 21 21 15 18 -8 -4 -11 3
-10 18 0 13 3 23 5 21 2 -2 17 9 33 26 28 28 30 33 25 90 -3 34 -3 59 0 55 9
-9 63 23 63 38 0 21 34 12 39 -10z m-1429 -14 c0 -5 -4 -10 -10 -10 -5 0 -10
5 -10 10 0 6 5 10 10 10 6 0 10 -4 10 -10z m1310 -6 c0 -11 -5 -14 -16 -10 -9
3 -18 6 -20 6 -3 0 -2 5 1 10 10 16 35 12 35 -6z m-438 -60 c-2 -10 -6 -21 -8
-24 -9 -8 -22 23 -17 37 8 20 29 9 25 -13z m-32 -38 c0 -8 -4 -18 -10 -21 -5
-3 -10 -19 -10 -36 0 -19 -5 -29 -15 -29 -11 0 -15 -11 -15 -37 0 -28 -3 -34
-10 -23 -13 20 -13 83 0 75 6 -4 10 5 10 20 0 14 7 28 15 31 8 4 15 12 15 20
0 8 5 14 10 14 6 0 10 -6 10 -14z m830 -51 c0 -8 -7 -15 -15 -15 -9 0 -18 -6
-21 -13 -3 -8 -18 -11 -43 -9 -33 3 -38 7 -33 24 5 19 20 20 66 2 11 -4 16 -1
16 10 0 9 7 16 15 16 8 0 15 -7 15 -15z m-133 -31 c-3 -3 -12 -4 -19 -1 -8 3
-5 6 6 6 11 1 17 -2 13 -5z m528 -85 c-6 -29 -6 -29 -34 -2 l-24 23 31 0 c26
0 30 -3 27 -21z m422 -15 c-3 -3 -12 -4 -19 -1 -8 3 -5 6 6 6 11 1 17 -2 13
-5z m-876 -27 c-13 -13 -26 -3 -16 12 3 6 11 8 17 5 6 -4 6 -10 -1 -17z m1426
-38 c-12 -20 -37 -26 -37 -9 0 6 7 10 15 10 9 0 12 6 9 15 -5 11 -2 13 9 9 13
-5 14 -9 4 -25z m-97 -35 c0 -11 -5 -14 -16 -10 -9 3 -21 6 -27 6 -16 0 14 20
31 20 6 0 12 -7 12 -16z m-2200 -50 c0 -8 -5 -12 -10 -9 -6 4 -8 11 -5 16 9
14 15 11 15 -7z m-213 -29 c0 -18 -28 -16 -35 3 -2 7 5 12 16 12 10 0 19 -7
19 -15z m2413 -45 c0 -22 -4 -40 -9 -40 -12 0 -18 28 -13 58 7 37 22 25 22
-18z m-1510 20 c0 -5 -4 -10 -10 -10 -5 0 -10 5 -10 10 0 6 5 10 10 10 6 0 10
-4 10 -10z m525 0 c-3 -5 -13 -10 -21 -10 -8 0 -14 5 -14 10 0 6 9 10 21 10
11 0 17 -4 14 -10z m475 -29 c0 -11 -4 -23 -10 -26 -6 -4 -10 5 -10 19 0 14 5
26 10 26 6 0 10 -9 10 -19z m-560 -66 c0 -8 -7 -15 -15 -15 -16 0 -20 12 -8
23 11 12 23 8 23 -8z m1200 -15 c0 -11 -7 -20 -15 -20 -17 0 -18 2 -9 24 9 23
24 20 24 -4z m-2660 -15 c0 -16 -9 -19 -35 -9 -13 5 -14 8 -3 15 20 13 38 11
38 -6z m1994 -22 c-3 -37 -5 -43 -14 -43 -5 0 -10 7 -10 15 0 8 -4 15 -10 15
-5 0 -10 6 -10 14 0 7 10 13 23 12 12 0 22 -7 21 -13z m-1234 -53 c0 -5 -4
-10 -10 -10 -5 0 -10 -7 -10 -15 0 -8 -4 -15 -9 -15 -5 0 -8 11 -8 25 0 18 5
25 18 25 11 0 19 -4 19 -10z m743 4 c3 -3 3 -13 0 -21 -5 -12 -7 -12 -14 -1
-15 23 -4 40 14 22z m-1659 -20 c8 -21 8 -24 -3 -24 -5 0 -11 9 -14 20 -6 24
8 27 17 4z m2218 -56 c-9 -9 -12 -7 -12 12 0 19 3 21 12 12 9 -9 9 -15 0 -24z
m-1302 -158 c0 -22 -4 -40 -10 -40 -5 0 -10 18 -10 40 0 22 5 40 10 40 6 0 10
-18 10 -40z m-190 -74 c0 -2 -3 -11 -6 -20 -5 -12 -9 -13 -24 -4 -10 7 -16 16
-14 20 5 8 44 11 44 4z m220 -6 c0 -5 -4 -10 -10 -10 -5 0 -10 5 -10 10 0 6 5
10 10 10 6 0 10 -4 10 -10z m510 -35 c0 -25 -4 -45 -10 -45 -11 0 -14 73 -3
83 11 12 13 8 13 -38z m1444 -31 c9 -3 13 -10 10 -15 -3 -5 4 -9 14 -9 11 0
25 -7 32 -15 7 -8 19 -15 26 -15 8 0 14 -4 14 -10 0 -5 16 -10 35 -10 19 0 35
-4 35 -9 0 -5 14 -12 30 -16 17 -4 30 -11 30 -16 0 -5 16 -9 35 -9 36 0 47
-13 19 -24 -9 -3 -30 1 -47 9 -16 8 -43 15 -59 15 -15 0 -28 4 -28 10 0 5 -11
12 -25 16 -14 3 -25 10 -25 15 0 5 -11 9 -25 9 -16 0 -25 6 -25 15 0 9 -9 15
-25 15 -14 0 -25 5 -25 10 0 6 -7 10 -15 10 -8 0 -15 7 -15 15 0 16 9 19 34 9z
m-1408 -71 c16 -6 20 -53 4 -53 -5 0 -10 11 -10 25 0 14 -4 25 -10 25 -5 0 -9
12 -9 28 2 24 2 24 6 4 3 -13 11 -26 19 -29z m-835 -40 c-11 -4 -11 -7 0 -14
16 -9 12 -14 -18 -23 -20 -6 -23 -4 -23 18 0 22 4 26 28 25 15 0 21 -3 13 -6z
m879 -47 c0 -8 4 -16 9 -18 4 -1 12 -13 15 -25 6 -17 3 -23 -8 -23 -10 0 -16
9 -16 25 0 14 -4 25 -10 25 -5 0 -10 7 -10 15 0 8 5 15 10 15 6 0 10 -6 10
-14z m2080 -46 l20 -20 -34 0 c-19 0 -38 5 -41 10 -3 6 3 10 15 10 12 0 18 5
15 10 -10 17 4 11 25 -10z m-130 -10 c0 -5 -7 -10 -15 -10 -8 0 -15 5 -15 10
0 6 7 10 15 10 8 0 15 -4 15 -10z m-1900 -24 c0 -3 -4 -8 -10 -11 -5 -3 -10
-1 -10 4 0 6 5 11 10 11 6 0 10 -2 10 -4z"/>
<path d="M2280 995 c0 -18 -5 -25 -20 -25 -13 0 -18 -5 -14 -15 4 -9 19 -15
40 -15 22 0 37 6 40 15 4 8 15 15 25 15 24 0 24 5 -1 30 -11 11 -31 20 -45 20
-20 0 -25 -5 -25 -25z"/>
<path d="M2201 968 c0 -13 3 -17 6 -10 2 6 9 10 14 6 5 -3 9 2 9 10 0 9 -7 16
-15 16 -9 0 -15 -9 -14 -22z"/>
<path d="M3380 4520 c0 -6 9 -20 19 -31 17 -18 22 -19 43 -8 20 11 20 14 6 17
-10 2 -18 10 -18 18 0 8 -4 14 -10 14 -5 0 -7 -8 -4 -17 5 -17 5 -17 -6 0 -12
19 -30 23 -30 7z"/>
<path d="M3510 4515 c0 -8 9 -15 19 -15 10 0 21 7 25 15 4 11 -1 15 -19 15
-16 0 -25 -6 -25 -15z"/>
<path d="M3593 4515 c0 -8 4 -12 9 -9 4 3 8 9 8 15 0 5 -4 9 -8 9 -5 0 -9 -7
-9 -15z"/>
<path d="M3740 4516 c0 -8 -6 -17 -12 -20 -10 -5 -10 -7 0 -12 6 -3 12 -12 12
-20 0 -8 10 -14 25 -14 16 0 25 -6 25 -15 0 -8 3 -14 8 -14 4 1 15 1 25 0 21
-1 23 -21 2 -21 -8 0 -15 -7 -15 -15 0 -8 7 -15 16 -15 8 0 12 -4 9 -10 -3 -5
3 -10 14 -10 17 0 21 6 21 35 0 22 -6 37 -17 44 -16 8 -14 10 10 16 20 5 27
13 27 31 0 19 5 24 25 24 18 0 25 -5 25 -20 0 -11 -6 -23 -14 -26 -8 -3 -12
-13 -9 -25 3 -11 -1 -21 -11 -25 -19 -7 -22 -54 -3 -54 7 0 21 11 31 25 10 14
23 25 28 25 5 0 14 5 21 10 7 6 22 19 35 29 14 12 24 32 25 53 l2 33 -125 3
c-104 2 -127 0 -136 -13 -10 -14 -12 -14 -18 0 -7 19 -26 20 -26 1z"/>
<path d="M4157 4500 c-10 -16 -22 -30 -28 -30 -5 0 -9 -9 -9 -20 0 -11 -4 -20
-10 -20 -5 0 -10 -7 -10 -15 0 -9 -7 -18 -15 -21 -8 -4 -15 -15 -15 -27 0 -11
-3 -17 -6 -14 -8 7 -44 -36 -44 -52 0 -6 7 -11 15 -11 8 0 15 7 15 15 0 8 5
15 10 15 13 0 12 -11 -4 -32 -16 -21 -32 -23 -40 -5 -5 10 -7 10 -12 0 -3 -7
-12 -13 -20 -13 -8 0 -14 -10 -14 -25 0 -29 5 -31 28 -9 10 11 17 13 20 6 2
-7 -9 -23 -24 -37 -33 -31 -26 -40 32 -40 52 0 59 -18 10 -25 -28 -4 -34 -8
-26 -19 6 -10 3 -19 -7 -26 -17 -13 -11 -51 6 -41 5 3 7 -3 4 -14 -3 -12 0
-20 7 -20 7 0 10 -7 6 -15 -4 -10 1 -15 14 -15 11 0 20 -4 20 -9 0 -14 -28
-21 -87 -21 -48 0 -54 -2 -43 -15 7 -8 21 -15 31 -15 10 0 21 -4 24 -10 3 -5
23 -10 43 -10 20 0 32 -4 26 -8 -7 -4 -8 -15 -3 -27 5 -13 8 -15 8 -5 1 10 11
15 30 15 35 0 51 -13 31 -25 -13 -8 -13 -12 3 -27 16 -16 17 -16 18 2 1 11 1
32 0 48 -1 24 3 27 29 27 25 0 30 4 30 25 0 14 5 25 10 25 6 0 10 11 10 25 0
16 6 25 15 25 11 0 15 -12 15 -49 0 -33 5 -51 14 -54 9 -4 12 -14 9 -26 -3
-12 -9 -18 -14 -15 -5 3 -9 -15 -9 -40 0 -34 -4 -46 -15 -46 -9 0 -15 -9 -15
-25 0 -20 5 -25 24 -25 19 0 25 -7 30 -34 4 -18 4 -40 1 -47 -8 -24 8 -36 57
-42 35 -5 51 -3 62 8 8 8 24 15 35 15 24 0 62 30 55 42 -3 4 1 8 8 8 34 0 36
33 38 444 l1 406 -179 0 -178 0 -17 -30z m347 -196 c14 -35 4 -104 -15 -104
-5 0 -9 27 -9 60 0 57 11 78 24 44z m-284 -68 c0 -3 -4 -8 -10 -11 -5 -3 -10
-1 -10 4 0 6 5 11 10 11 6 0 10 -2 10 -4z m-70 -106 c0 -5 -9 -10 -20 -10 -11
0 -20 5 -20 10 0 6 9 10 20 10 11 0 20 -4 20 -10z m220 -38 c0 -26 -6 -54 -12
-60 -10 -10 -10 -15 0 -21 11 -7 11 -9 -1 -14 -19 -7 -37 11 -37 39 0 28 -30
41 -46 20 -16 -23 -24 -20 -24 9 0 19 5 25 23 25 12 0 31 11 42 25 11 13 28
24 38 25 14 0 17 -9 17 -48z m-250 -66 c0 -10 15 -16 48 -19 38 -3 43 -5 25
-11 -13 -5 -23 -15 -23 -22 0 -23 -47 -17 -53 6 -3 12 -14 20 -26 20 -12 0
-21 4 -21 10 0 5 -7 7 -15 4 -9 -4 -15 0 -15 10 0 12 10 16 40 16 28 0 40 -4
40 -14z m203 -143 c-10 -27 -25 -12 -19 18 3 17 7 43 7 58 1 16 4 8 9 -19 4
-25 5 -51 3 -57z m127 67 c0 -5 -4 -10 -10 -10 -5 0 -10 5 -10 10 0 6 5 10 10
10 6 0 10 -4 10 -10z m-100 -138 c3 -2 -2 -3 -10 -2 -29 4 -38 0 -44 -22 -6
-20 -7 -21 -16 -6 -13 21 -3 46 18 51 15 3 27 -2 52 -21z m67 -24 c-3 -8 -6
-5 -6 6 -1 11 2 17 5 13 3 -3 4 -12 1 -19z m93 -43 c0 -8 -7 -15 -15 -15 -8 0
-15 7 -15 15 0 8 7 15 15 15 8 0 15 -7 15 -15z m-107 -42 c-9 -23 -28 -43 -42
-43 -6 0 -11 -9 -11 -20 0 -15 -6 -20 -27 -19 -17 1 -21 3 -10 6 10 3 17 14
17 28 0 13 -8 29 -17 35 -16 10 -16 11 -1 6 24 -7 68 16 68 37 0 16 2 17 15 3
9 -9 12 -22 8 -33z"/>
<path d="M1106 4508 c3 -4 9 -8 15 -8 5 0 9 4 9 8 0 5 -7 9 -15 9 -8 0 -12 -4
-9 -9z"/>
<path d="M800 4460 c0 -5 5 -10 10 -10 6 0 10 5 10 10 0 6 -4 10 -10 10 -5 0
-10 -4 -10 -10z"/>
<path d="M3275 4460 c-3 -5 1 -10 9 -10 9 0 16 5 16 10 0 6 -4 10 -9 10 -6 0
-13 -4 -16 -10z"/>
<path d="M3485 4460 c-3 -5 -18 -10 -31 -10 -16 0 -24 -5 -21 -12 6 -17 60
-11 70 8 5 9 16 13 28 9 11 -4 19 -2 19 4 0 14 -57 14 -65 1z"/>
<path d="M2740 4436 c0 -14 34 -28 44 -18 15 14 4 32 -19 32 -15 0 -25 -6 -25
-14z"/>
<path d="M2920 4440 c0 -5 5 -10 10 -10 6 0 10 5 10 10 0 6 -4 10 -10 10 -5 0
-10 -4 -10 -10z"/>
<path d="M3746 4421 c-4 -7 -5 -15 -2 -18 9 -9 19 4 14 18 -4 11 -6 11 -12 0z"/>
<path d="M382 4408 c2 -6 14 -13 27 -15 20 -3 21 -1 7 12 -17 18 -39 20 -34 3z"/>
<path d="M464 4398 c0 -13 6 -26 12 -30 6 -4 12 -40 13 -80 1 -44 7 -75 14
-80 9 -5 9 -10 0 -19 -9 -9 -8 -15 3 -27 14 -13 19 -11 44 19 16 19 29 45 29
59 l0 25 -11 -22 c-7 -14 -20 -23 -35 -23 -19 0 -23 5 -23 30 0 17 5 30 13 30
9 0 9 2 -1 9 -7 4 -12 12 -11 17 1 5 1 24 0 43 -1 26 -5 32 -17 27 -8 -3 -12
-2 -9 4 3 6 17 7 31 4 29 -7 33 11 5 26 -34 18 -59 12 -57 -12z"/>
<path d="M3150 4410 c0 -5 5 -10 10 -10 6 0 10 5 10 10 0 6 -4 10 -10 10 -5 0
-10 -4 -10 -10z"/>
<path d="M3230 4410 c0 -5 5 -10 11 -10 5 0 7 5 4 10 -3 6 -8 10 -11 10 -2 0
-4 -4 -4 -10z"/>
<path d="M590 4390 c0 -6 7 -10 15 -10 8 0 15 2 15 4 0 2 -7 6 -15 10 -8 3
-15 1 -15 -4z"/>
<path d="M670 4390 c0 -5 5 -10 10 -10 6 0 10 5 10 10 0 6 -4 10 -10 10 -5 0
-10 -4 -10 -10z"/>
<path d="M2828 4380 c-14 -16 -15 -20 -2 -31 11 -9 14 -8 14 8 0 16 5 19 25
15 18 -3 25 0 25 12 0 22 -40 19 -62 -4z"/>
<path d="M360 4370 c0 -11 5 -20 10 -20 6 0 10 9 10 20 0 11 -4 20 -10 20 -5
0 -10 -9 -10 -20z"/>
<path d="M2970 4360 c0 -5 5 -10 10 -10 6 0 10 5 10 10 0 6 -4 10 -10 10 -5 0
-10 -4 -10 -10z"/>
<path d="M3352 4345 c-1 -17 2 -23 12 -19 8 3 12 14 9 25 -7 27 -18 24 -21 -6z"/>
<path d="M3250 4335 c0 -9 9 -15 25 -15 16 0 25 6 25 15 0 9 -9 15 -25 15 -16
0 -25 -6 -25 -15z"/>
<path d="M3145 4310 c-3 -5 1 -10 9 -10 9 0 16 -7 16 -15 0 -8 7 -15 15 -15
20 0 19 13 -3 33 -21 20 -28 21 -37 7z"/>
<path d="M360 4263 c0 -22 2 -25 10 -13 13 20 13 40 0 40 -5 0 -10 -12 -10
-27z"/>
<path d="M3130 4280 c0 -5 5 -10 11 -10 5 0 7 5 4 10 -3 6 -8 10 -11 10 -2 0
-4 -4 -4 -10z"/>
<path d="M248 4249 c-23 -24 -22 -26 3 -32 15 -4 22 1 30 19 12 32 11 34 -3
33 -7 0 -21 -9 -30 -20z"/>
<path d="M3230 4260 c0 -5 5 -10 10 -10 6 0 10 5 10 10 0 6 -4 10 -10 10 -5 0
-10 -4 -10 -10z"/>
<path d="M160 4230 c0 -5 5 -10 10 -10 6 0 10 5 10 10 0 6 -4 10 -10 10 -5 0
-10 -4 -10 -10z"/>
<path d="M360 4185 c0 -41 19 -46 50 -13 22 24 26 38 9 38 -5 0 -7 -4 -4 -10
3 -6 -1 -7 -9 -4 -9 3 -13 10 -10 15 3 5 -4 9 -15 9 -17 0 -21 -6 -21 -35z"/>
<path d="M3220 4180 c0 -5 7 -10 15 -10 8 0 15 5 15 10 0 6 -7 10 -15 10 -8 0
-15 -4 -15 -10z"/>
<path d="M3350 4015 c0 -27 18 -33 38 -13 9 9 12 9 12 0 0 -7 6 -12 13 -12 6
1 2 9 -11 19 -15 13 -18 21 -10 24 7 3 1 6 -14 6 -23 1 -28 -3 -28 -24z"/>
<path d="M3870 4001 c0 -12 5 -21 10 -21 6 0 10 6 10 14 0 8 -4 18 -10 21 -5
3 -10 -3 -10 -14z"/>
<path d="M3510 3970 c0 -5 -8 -10 -17 -10 -15 0 -16 -2 -3 -10 24 -16 40 -12
40 10 0 11 -4 20 -10 20 -5 0 -10 -4 -10 -10z"/>
<path d="M3400 3950 c0 -5 7 -10 15 -10 8 0 15 -7 15 -16 0 -22 21 -12 31 14
8 20 5 22 -26 22 -19 0 -35 -4 -35 -10z"/>
<path d="M3940 3875 c0 -8 7 -15 15 -15 8 0 15 -7 15 -15 0 -8 -7 -15 -15 -15
-8 0 -15 -4 -15 -10 0 -5 7 -10 16 -10 8 0 12 -4 9 -10 -4 -6 5 -10 19 -10 28
0 35 14 12 23 -9 4 -12 14 -9 26 6 23 -12 51 -33 51 -8 0 -14 -7 -14 -15z"/>
<path d="M3830 3870 c19 -13 30 -13 30 0 0 6 -10 10 -22 10 -19 0 -20 -2 -8
-10z"/>
<path d="M4068 3833 c-3 -35 -4 -36 -21 -19 -10 10 -21 16 -24 12 -4 -3 2 -13
13 -21 13 -10 15 -14 5 -15 -8 0 -12 -3 -8 -6 3 -3 19 -3 35 1 26 5 30 11 30
40 0 48 -26 55 -30 8z"/>
<path d="M3870 3851 c0 -6 6 -11 14 -11 8 0 17 -6 20 -12 3 -7 5 -4 3 7 -2 20
-37 35 -37 16z"/>
<path d="M4180 3844 c0 -8 5 -12 10 -9 6 3 10 10 10 16 0 5 -4 9 -10 9 -5 0
-10 -7 -10 -16z"/>
<path d="M3658 3790 c-14 -16 -14 -19 -2 -24 24 -9 29 -7 30 14 2 28 -9 32
-28 10z"/>
<path d="M3767 3776 c-4 -10 -1 -16 8 -16 26 0 65 -23 65 -39 0 -11 3 -11 14
4 20 27 9 46 -22 38 -17 -4 -23 -2 -18 6 4 6 3 11 -3 11 -5 0 -16 3 -24 6 -8
3 -17 -2 -20 -10z"/>
<path d="M3695 3750 c-3 -5 -1 -10 4 -10 6 0 11 5 11 10 0 6 -2 10 -4 10 -3 0
-8 -4 -11 -10z"/>
<path d="M4231 3706 c-8 -10 -9 -16 -1 -21 5 -3 13 1 16 10 9 22 -1 29 -15 11z"/>
<path d="M3770 3589 c0 -5 5 -7 10 -4 6 3 10 8 10 11 0 2 -4 4 -10 4 -5 0 -10
-5 -10 -11z"/>
<path d="M4490 3565 c-7 -8 -19 -15 -26 -15 -8 0 -14 -7 -14 -16 0 -8 -4 -13
-9 -10 -5 3 -14 -1 -21 -9 -7 -8 -20 -15 -30 -15 -24 0 -44 -78 -30 -116 6
-15 8 -29 6 -32 -10 -9 -60 -4 -64 7 -2 6 -10 11 -18 11 -8 0 -14 7 -14 15 0
8 -9 15 -20 15 -11 0 -20 -3 -20 -6 0 -7 32 -39 40 -39 17 0 61 -46 58 -62 -4
-22 -78 -33 -78 -11 0 15 -35 40 -44 31 -3 -4 -6 -15 -6 -25 0 -14 6 -18 23
-16 18 2 23 -2 25 -26 3 -27 52 -89 52 -65 0 8 4 8 15 -1 28 -23 16 -90 -15
-90 -24 0 -33 15 -32 52 0 15 -4 26 -9 23 -5 -4 -9 4 -9 16 0 39 -17 7 -24
-43 -4 -39 -3 -48 9 -48 8 0 15 -7 15 -16 0 -8 5 -12 10 -9 6 3 13 -1 16 -9 9
-24 79 -21 105 5 11 11 21 29 22 40 1 11 9 19 20 19 10 0 15 5 12 10 -3 6 -1
10 4 10 6 0 11 -4 11 -10 0 -5 7 -10 15 -10 8 0 15 7 15 15 0 8 7 15 15 15 8
0 15 7 15 15 0 8 5 15 10 15 6 0 10 73 10 200 0 163 -3 200 -14 200 -7 0 -19
-7 -26 -15z m-60 -175 c0 -5 -14 -10 -31 -10 -17 0 -28 4 -24 10 3 6 17 10 31
10 13 0 24 -4 24 -10z m0 -131 c0 -6 6 -17 14 -25 8 -8 19 -14 25 -14 6 0 11
-4 11 -10 0 -5 -11 -10 -25 -10 -18 0 -25 5 -25 20 0 15 -9 22 -30 27 -44 8
-47 23 -6 23 20 0 36 -5 36 -11z m-124 -12 c9 3 14 -1 14 -12 0 -24 -34 -15
-37 10 -2 11 0 15 3 8 3 -7 12 -9 20 -6z"/>
<path d="M3869 3393 c0 -5 -2 -16 -4 -25 -2 -10 3 -18 11 -18 8 0 14 10 14 25
0 22 -19 38 -21 18z"/>
<path d="M3946 3174 c-9 -22 -8 -24 9 -24 8 0 15 9 15 20 0 24 -15 27 -24 4z"/>
<path d="M4150 3181 c0 -6 5 -13 10 -16 15 -9 12 -34 -5 -51 -8 -9 -15 -12
-15 -8 0 5 -5 3 -11 -3 -12 -12 -3 -53 12 -53 5 0 9 7 9 15 0 8 5 15 10 15 6
0 9 3 9 8 -3 20 2 32 16 32 23 0 19 41 -5 47 -11 3 -17 9 -14 14 3 5 0 9 -5 9
-6 0 -11 -4 -11 -9z"/>
<path d="M4050 3146 c0 -14 5 -26 10 -26 6 0 10 9 10 19 0 11 -4 23 -10 26 -6
4 -10 -5 -10 -19z"/>
<path d="M4076 3111 c-4 -7 -5 -15 -2 -18 9 -9 19 4 14 18 -4 11 -6 11 -12 0z"/>
<path d="M4495 3064 c-22 -27 -45 -31 -45 -10 0 8 -4 18 -10 21 -6 3 -10 -4
-10 -18 0 -16 8 -28 25 -35 14 -6 25 -16 25 -22 0 -5 -11 -10 -25 -10 -22 0
-25 -4 -25 -36 0 -21 4 -33 10 -29 6 3 10 1 10 -4 0 -6 12 -11 27 -11 29 0 26
-10 -4 -14 -10 -2 -20 -11 -22 -22 -2 -10 -8 -22 -15 -26 -6 -4 1 -8 17 -8 17
0 27 -5 27 -15 0 -9 9 -15 25 -15 16 0 25 6 25 15 0 8 -4 15 -10 15 -5 0 -10
9 -10 19 0 11 5 23 10 26 6 3 10 28 10 56 0 37 -4 49 -15 49 -8 0 -15 5 -15
10 0 6 7 13 15 16 15 6 21 59 8 67 -5 3 -17 -6 -28 -19z"/>
<path d="M4168 3045 c2 -14 8 -28 13 -31 15 -9 22 25 9 41 -19 22 -28 18 -22
-10z"/>
<path d="M3940 3040 c0 -11 6 -20 14 -20 8 0 17 -7 20 -16 3 -8 11 -12 17 -8
8 5 6 10 -5 16 -9 5 -16 18 -16 28 0 11 -7 20 -15 20 -8 0 -15 -9 -15 -20z"/>
<path d="M3970 2930 c0 -5 5 -10 11 -10 5 0 7 5 4 10 -3 6 -8 10 -11 10 -2 0
-4 -4 -4 -10z"/>
<path d="M4480 2695 c0 -8 7 -15 15 -15 8 0 15 -4 15 -10 0 -5 -13 -10 -29
-10 -16 0 -31 -6 -35 -15 -4 -10 1 -15 14 -15 26 0 26 -16 1 -23 -14 -3 -18
-11 -14 -26 3 -13 1 -21 -6 -21 -7 0 -9 5 -6 10 3 6 -3 10 -14 10 -13 0 -21 7
-21 17 0 14 -2 15 -12 4 -10 -11 -10 -14 0 -18 19 -7 14 -21 -10 -25 -25 -4
-37 -28 -14 -28 9 0 16 -7 16 -15 0 -25 -26 -17 -41 13 -8 15 -18 30 -24 35
-6 4 -5 10 4 16 7 5 10 14 7 20 -11 18 -26 13 -26 -10 0 -11 -4 -17 -10 -14
-5 3 -10 1 -10 -4 0 -6 5 -11 10 -11 19 0 10 -59 -13 -84 -19 -20 -25 -22 -40
-11 -11 7 -18 27 -19 49 -1 20 -5 36 -10 36 -11 0 0 -80 13 -96 5 -6 6 -14 2
-17 -3 -4 2 -9 11 -13 9 -3 16 -16 16 -29 0 -13 7 -25 15 -29 8 -3 15 -14 15
-25 0 -15 5 -19 16 -14 10 4 22 -1 30 -11 17 -24 48 -16 52 12 2 14 10 22 23
22 11 0 17 5 14 10 -3 6 3 10 14 10 12 0 21 -4 21 -10 0 -5 9 -10 21 -10 12 0
18 4 13 11 -4 7 -1 10 7 7 19 -6 24 -48 6 -48 -8 0 -17 -9 -20 -20 -6 -24 -47
-28 -47 -5 0 8 5 15 12 15 6 0 9 3 6 6 -10 9 -48 -15 -48 -31 0 -7 6 -15 13
-18 7 -2 8 -8 3 -13 -5 -5 -11 -4 -13 4 -9 23 -23 12 -23 -18 0 -18 -6 -33
-15 -36 -26 -11 -18 -37 10 -32 35 7 33 -18 -2 -27 -26 -6 -26 -8 -10 -19 9
-7 17 -23 17 -35 0 -12 4 -19 10 -16 6 3 10 1 10 -4 0 -6 9 -11 19 -11 11 0
23 -4 26 -10 3 -5 19 -10 36 -10 16 0 29 -4 29 -10 0 -5 5 -10 10 -10 6 0 10
122 10 345 l0 345 -25 0 c-16 0 -25 -6 -25 -15z m-26 -191 c9 -22 8 -24 -9
-24 -8 0 -15 9 -15 20 0 24 15 27 24 4z m-124 -39 c0 -8 5 -15 10 -15 6 0 10
-6 10 -14 0 -8 6 -17 13 -20 6 -4 2 -4 -10 -2 -17 3 -23 -1 -23 -15 0 -10 -7
-19 -15 -19 -11 0 -15 12 -15 50 0 38 4 50 15 50 8 0 15 -7 15 -15z m150 -230
c0 -9 -6 -12 -15 -9 -8 4 -12 10 -9 15 8 14 24 10 24 -6z m0 -115 c0 -16 -7
-20 -30 -20 -16 0 -30 5 -30 10 0 6 7 10 15 10 8 0 15 5 15 10 0 6 7 10 15 10
8 0 15 -9 15 -20z"/>
<path d="M4282 2624 c-1 -14 2 -23 8 -19 12 7 14 45 2 45 -4 0 -9 -11 -10 -26z"/>
<path d="M4357 2643 c-13 -12 -7 -43 8 -43 8 0 15 6 15 13 0 18 -15 38 -23 30z"/>
<path d="M4200 2590 c0 -5 5 -10 10 -10 6 0 10 5 10 10 0 6 -4 10 -10 10 -5 0
-10 -4 -10 -10z"/>
<path d="M4020 2530 c0 -24 6 -25 26 -6 19 20 18 26 -6 26 -13 0 -20 -7 -20
-20z"/>
<path d="M4100 2481 c0 -17 5 -33 10 -36 6 -3 10 -17 10 -31 0 -15 6 -24 15
-24 8 0 15 4 15 10 0 5 6 7 14 4 8 -3 14 -17 13 -31 -1 -14 4 -28 11 -30 10
-4 12 8 10 48 -3 46 -6 54 -23 55 -35 1 -55 15 -55 40 0 13 -4 24 -10 24 -5 0
-10 -13 -10 -29z m90 -51 c0 -5 -2 -10 -4 -10 -3 0 -8 5 -11 10 -3 6 -1 10 4
10 6 0 11 -4 11 -10z"/>
<path d="M3995 2470 c-3 -5 -1 -10 4 -10 6 0 11 5 11 10 0 6 -2 10 -4 10 -3 0
-8 -4 -11 -10z"/>
<path d="M4006 2433 c-3 -10 -7 -33 -8 -50 -1 -19 -8 -33 -15 -33 -7 0 -13 -7
-13 -15 0 -8 4 -15 9 -15 5 0 11 7 15 15 6 18 36 20 36 3 0 -6 3 -8 6 -5 4 4
1 13 -5 21 -7 8 -12 33 -13 55 0 45 -4 51 -12 24z"/>
<path d="M3920 2289 c0 -14 25 -39 39 -39 12 0 14 11 5 34 -7 18 -44 22 -44 5z"/>
<path d="M4020 2279 c0 -5 5 -7 10 -4 6 3 10 8 10 11 0 2 -4 4 -10 4 -5 0 -10
-5 -10 -11z"/>
<path d="M3977 2243 c-4 -3 -7 -11 -7 -17 0 -6 5 -5 12 2 6 6 9 14 7 17 -3 3
-9 2 -12 -2z"/>
<path d="M3920 2020 c0 -11 -7 -20 -15 -20 -10 0 -15 -10 -15 -31 0 -35 23
-36 28 -1 2 12 8 22 13 22 5 0 9 11 9 25 0 14 -4 25 -10 25 -5 0 -10 -9 -10
-20z"/>
<path d="M3976 1974 c-3 -9 -6 -22 -6 -31 0 -8 -7 -21 -15 -29 -8 -9 -15 -33
-15 -53 0 -22 6 -44 15 -51 8 -7 15 -21 15 -32 0 -26 24 -18 28 10 2 12 8 22
13 22 5 0 9 7 9 15 0 18 -36 56 -44 48 -3 -4 -6 1 -6 9 0 8 11 27 25 42 14 15
25 29 25 32 0 10 -29 3 -34 -8 -3 -7 -3 -1 0 15 7 29 0 37 -10 11z"/>
<path d="M4150 1969 c0 -15 -7 -32 -15 -39 -8 -7 -15 -22 -15 -34 0 -22 -34
-59 -44 -49 -3 4 -6 26 -6 50 0 63 -20 53 -21 -12 -1 -30 -2 -69 -3 -86 0 -17
5 -34 12 -36 6 -3 12 -20 12 -38 0 -40 16 -48 93 -45 83 4 87 3 87 -25 0 -20
-5 -25 -24 -25 -15 0 -26 7 -29 20 -3 13 -13 20 -29 19 -12 0 -17 -3 -11 -6
10 -3 10 -8 -1 -19 -8 -8 -19 -14 -25 -14 -6 0 -13 -11 -17 -24 -3 -13 -15
-27 -27 -31 -21 -7 -20 -8 6 -12 34 -5 35 -21 2 -29 -17 -4 -25 -13 -25 -28 0
-34 23 -76 42 -76 10 0 25 -11 34 -25 12 -18 25 -25 48 -25 18 0 37 -5 44 -12
9 -9 12 -7 12 10 0 12 5 22 11 22 5 0 7 -4 4 -10 -4 -6 8 -10 29 -10 20 0 36
-5 36 -11 0 -5 5 -7 10 -4 6 3 10 1 10 -4 0 -6 21 -11 49 -11 27 0 51 -4 53
-9 2 -4 20 -11 41 -15 l37 -7 0 320 0 320 -80 7 c-44 3 -80 11 -80 15 0 5 -4
9 -10 9 -5 0 -10 -5 -10 -11 0 -14 -25 -39 -39 -39 -6 0 -11 -8 -11 -17 0 -15
-2 -16 -10 -3 -8 12 -10 11 -10 -7 0 -14 -6 -23 -15 -23 -8 0 -15 9 -15 20 0
12 -7 32 -16 46 -13 18 -20 22 -30 13 -15 -12 -8 -39 11 -39 8 0 11 -8 8 -20
-3 -13 -14 -20 -29 -20 -21 0 -24 5 -24 38 0 20 -5 44 -10 52 -8 12 -10 9 -10
-11z m-8 -206 c-3 -9 -9 -10 -23 -2 -20 10 -26 29 -10 29 5 0 13 10 17 23 7
21 8 20 14 -8 3 -16 4 -36 2 -42z m128 38 c0 -6 -4 -13 -10 -16 -5 -3 -10 1
-10 9 0 9 5 16 10 16 6 0 10 -4 10 -9z m0 -52 c0 -5 -4 -9 -10 -9 -5 0 -10 7
-10 16 0 8 5 12 10 9 6 -3 10 -10 10 -16z m160 -80 c0 -5 -11 -9 -25 -9 -14 0
-25 6 -25 14 0 9 8 12 25 8 14 -2 25 -8 25 -13z m-230 -199 c0 -5 -11 -10 -25
-10 -14 0 -25 5 -25 10 0 6 11 10 25 10 14 0 25 -4 25 -10z"/>
<path d="M3895 1800 c3 -5 8 -10 11 -10 2 0 4 5 4 10 0 6 -5 10 -11 10 -5 0
-7 -4 -4 -10z"/>
<path d="M3820 1741 c0 -11 5 -23 10 -26 6 -4 10 5 10 19 0 14 -4 26 -10 26
-5 0 -10 -9 -10 -19z"/>
<path d="M3660 1570 c0 -5 5 -10 10 -10 6 0 10 5 10 10 0 6 -4 10 -10 10 -5 0
-10 -4 -10 -10z"/>
<path d="M3653 1466 c-6 -7 -14 -29 -17 -47 -3 -19 -10 -35 -15 -37 -16 -5
-13 -31 3 -48 19 -18 36 -18 36 0 0 8 9 18 20 21 11 4 18 11 14 16 -3 6 -12 8
-20 5 -11 -4 -14 5 -14 39 0 33 4 45 15 45 8 0 15 5 15 10 0 14 -23 12 -37 -4z"/>
<path d="M3770 1470 c0 -5 5 -10 10 -10 6 0 10 5 10 10 0 6 -4 10 -10 10 -5 0
-10 -4 -10 -10z"/>
<path d="M3840 1446 c0 -9 -7 -16 -15 -16 -8 0 -15 -8 -15 -19 0 -32 -52 -57
-84 -39 -15 8 -22 -5 -17 -34 0 -5 -3 -8 -9 -8 -6 0 -10 -29 -10 -66 0 -62 1
-65 23 -62 18 2 23 -2 25 -24 3 -26 -5 -33 -30 -29 -5 0 -7 -4 -5 -11 1 -7 -4
-13 -10 -14 -7 -1 -17 -2 -23 -3 -5 0 -10 -13 -10 -27 0 -23 -3 -26 -25 -22
-23 5 -25 2 -25 -29 0 -20 4 -32 10 -28 6 3 10 -3 10 -15 0 -11 7 -23 15 -26
8 -4 15 -10 15 -16 0 -13 26 -38 39 -38 6 0 11 -7 11 -15 0 -10 10 -15 28 -15
21 0 24 -2 12 -10 -12 -7 -8 -10 15 -10 40 0 75 -10 75 -21 0 -5 -7 -9 -15 -9
-8 0 -15 -4 -15 -10 0 -5 7 -10 15 -10 8 0 15 -7 15 -15 0 -9 9 -15 25 -15 14
0 25 -4 25 -10 0 -5 7 -10 15 -10 8 0 15 5 15 11 0 6 6 9 13 6 6 -2 11 -14 9
-25 -3 -19 2 -22 33 -22 20 0 43 -7 51 -15 9 -8 33 -15 55 -15 21 0 39 -4 39
-10 0 -5 16 -10 35 -10 22 0 38 -6 41 -15 4 -10 21 -15 54 -15 27 0 50 -4 52
-9 2 -4 54 -11 116 -13 l112 -6 0 309 0 309 -65 0 c-36 0 -65 4 -65 9 0 5 -25
13 -55 16 -30 4 -58 11 -61 16 -3 5 -23 9 -45 9 -21 0 -39 4 -39 10 0 5 -18
13 -40 16 -22 4 -40 10 -40 15 0 5 -9 9 -21 9 -11 0 -28 7 -36 16 -12 12 -29
15 -67 10 -28 -3 -52 -10 -54 -15 -5 -14 -39 -14 -47 -1 -3 6 -1 10 5 10 6 0
8 5 5 10 -7 12 20 42 29 33 3 -4 6 -1 6 5 0 7 -11 12 -25 12 -16 0 -25 -6 -25
-15 0 -8 -6 -15 -14 -15 -9 0 -13 -7 -11 -20 2 -13 -2 -20 -11 -20 -9 0 -14
11 -14 35 0 25 4 35 16 35 9 0 14 5 12 12 -6 18 -28 21 -28 4z m-3 -116 c-1
-12 -5 -16 -10 -11 -5 5 -6 14 -3 20 11 16 15 13 13 -9z m-51 -46 c-6 -16 -15
-17 -35 -5 -11 7 -10 12 5 28 15 16 21 17 27 5 5 -7 6 -20 3 -28z m54 -154 c0
-5 -13 -10 -28 -10 -21 0 -28 5 -29 22 -1 12 3 26 10 30 12 7 47 -23 47 -42z
m140 -17 c0 -5 -7 -16 -14 -26 -12 -16 -14 -16 -20 -1 -10 26 -7 34 14 34 11
0 20 -3 20 -7z m-177 -230 c-7 -2 -19 -2 -25 0 -7 3 -2 5 12 5 14 0 19 -2 13
-5z"/>
<path d="M3740 1430 c0 -11 5 -20 10 -20 6 0 10 9 10 20 0 11 -4 20 -10 20 -5
0 -10 -9 -10 -20z"/>
<path d="M4410 1320 c-12 -8 -10 -10 8 -10 13 0 20 4 17 10 -7 12 -6 12 -25 0z"/>
<path d="M3305 1091 c-3 -5 -1 -12 5 -16 5 -3 10 1 10 9 0 18 -6 21 -15 7z"/>
<path d="M3447 1050 c-9 -11 -17 -28 -17 -37 0 -12 7 -8 25 13 14 16 25 32 25
37 0 13 -15 7 -33 -13z"/>
<path d="M3485 1030 c3 -5 8 -10 11 -10 2 0 4 5 4 10 0 6 -5 10 -11 10 -5 0
-7 -4 -4 -10z"/>
</g>
</svg>
